<svg preserveAspectRatio="none" width="100%" height="100%" overflow="visible" style="display: block;" viewBox="0 0 30 30" fill="none" xmlns="http://www.w3.org/2000/svg">
<g id="Frame">
<g clip-path="url(#clip0_6_78)">
<path id="Vector" d="M10.3125 1.40625C10.3125 0.626953 9.68555 0 8.90625 0C8.12695 0 7.5 0.626953 7.5 1.40625V3.75C5.43164 3.75 3.75 5.43164 3.75 7.5H1.40625C0.626953 7.5 0 8.12695 0 8.90625C0 9.68555 0.626953 10.3125 1.40625 10.3125H3.75V13.5938H1.40625C0.626953 13.5938 0 14.2207 0 15C0 15.7793 0.626953 16.4062 1.40625 16.4062H3.75V19.6875H1.40625C0.626953 19.6875 0 20.3145 0 21.0938C0 21.873 0.626953 22.5 1.40625 22.5H3.75C3.75 24.5684 5.43164 26.25 7.5 26.25V28.5938C7.5 29.373 8.12695 30 8.90625 30C9.68555 30 10.3125 29.373 10.3125 28.5938V26.25H13.5938V28.5938C13.5938 29.373 14.2207 30 15 30C15.7793 30 16.4062 29.373 16.4062 28.5938V26.25H19.6875V28.5938C19.6875 29.373 20.3145 30 21.0938 30C21.873 30 22.5 29.373 22.5 28.5938V26.25C24.5684 26.25 26.25 24.5684 26.25 22.5H28.5938C29.373 22.5 30 21.873 30 21.0938C30 20.3145 29.373 19.6875 28.5938 19.6875H26.25V16.4062H28.5938C29.373 16.4062 30 15.7793 30 15C30 14.2207 29.373 13.5938 28.5938 13.5938H26.25V10.3125H28.5938C29.373 10.3125 30 9.68555 30 8.90625C30 8.12695 29.373 7.5 28.5938 7.5H26.25C26.25 5.43164 24.5684 3.75 22.5 3.75V1.40625C22.5 0.626953 21.873 0 21.0938 0C20.3145 0 19.6875 0.626953 19.6875 1.40625V3.75H16.4062V1.40625C16.4062 0.626953 15.7793 0 15 0C14.2207 0 13.5938 0.626953 13.5938 1.40625V3.75H10.3125V1.40625ZM9.375 7.5H20.625C21.6621 7.5 22.5 8.33789 22.5 9.375V20.625C22.5 21.6621 21.6621 22.5 20.625 22.5H9.375C8.33789 22.5 7.5 21.6621 7.5 20.625V9.375C7.5 8.33789 8.33789 7.5 9.375 7.5ZM20.625 9.375H9.375V20.625H20.625V9.375Z" fill="var(--fill-0, white)"/>
</g>
</g>
<defs>
<clipPath id="clip0_6_78">
<path d="M0 0H30V30H0V0Z" fill="white"/>
</clipPath>
</defs>
</svg>
