<svg preserveAspectRatio="none" width="100%" height="100%" overflow="visible" style="display: block;" viewBox="0 0 32 36" fill="none" xmlns="http://www.w3.org/2000/svg">
<g id="Frame">
<g clip-path="url(#clip0_6_36)">
<path id="Vector" d="M31.5 5.625V9C31.5 12.1078 24.4477 14.625 15.75 14.625C7.05234 14.625 0 12.1078 0 9V5.625C0 2.51719 7.05234 0 15.75 0C24.4477 0 31.5 2.51719 31.5 5.625ZM27.6469 15.0961C29.1094 14.5758 30.4523 13.9078 31.5 13.0852V20.25C31.5 23.3578 24.4477 25.875 15.75 25.875C7.05234 25.875 0 23.3578 0 20.25V13.0852C1.04766 13.9148 2.39062 14.5758 3.85312 15.0961C7.01016 16.2211 11.2148 16.875 15.75 16.875C20.2852 16.875 24.4898 16.2211 27.6469 15.0961ZM0 24.3352C1.04766 25.1648 2.39062 25.8258 3.85312 26.3461C7.01016 27.4711 11.2148 28.125 15.75 28.125C20.2852 28.125 24.4898 27.4711 27.6469 26.3461C29.1094 25.8258 30.4523 25.1578 31.5 24.3352V30.375C31.5 33.4828 24.4477 36 15.75 36C7.05234 36 0 33.4828 0 30.375V24.3352Z" fill="var(--fill-0, #C084FC)"/>
</g>
</g>
<defs>
</defs>
</svg>
