<svg preserveAspectRatio="none" width="100%" height="100%" overflow="visible" style="display: block;" viewBox="0 0 14 14" fill="none" xmlns="http://www.w3.org/2000/svg">
<g id="Frame">
<path id="Vector" d="M1.30156 8.21406L6.24258 12.827C6.44766 13.0184 6.71836 13.125 7 13.125C7.28164 13.125 7.55234 13.0184 7.75742 12.827L12.6984 8.21406C13.5297 7.44023 14 6.35469 14 5.21992V5.06133C14 3.15 12.6191 1.52031 10.7352 1.20586C9.48828 0.998047 8.21953 1.40547 7.32812 2.29688L7 2.625L6.67188 2.29688C5.78047 1.40547 4.51172 0.998047 3.26484 1.20586C1.38086 1.52031 0 3.15 0 5.06133V5.21992C0 6.35469 0.470312 7.44023 1.30156 8.21406Z" fill="var(--fill-0, #F87171)"/>
</g>
</svg>
