<svg preserveAspectRatio="none" width="100%" height="100%" overflow="visible" style="display: block;" viewBox="0 0 14 16" fill="none" xmlns="http://www.w3.org/2000/svg">
<g id="Frame">
<g clip-path="url(#clip0_6_30)">
<path id="Vector" d="M11.5844 3.00312C10.8156 1.23438 9.05312 0 7 0C4.94688 0 3.18438 1.23438 2.41563 3.00312C1.90313 3.04687 1.5 3.475 1.5 4V6C1.5 6.525 1.90313 6.95312 2.41563 6.99687C3.18438 8.76562 4.94688 10 7 10C9.05312 10 10.8156 8.76562 11.5844 6.99687C12.0969 6.95312 12.5 6.525 12.5 6V4C12.5 3.475 12.0969 3.04687 11.5844 3.00312ZM10.5 4.5V5C10.5 6.65625 9.15625 8 7.5 8H6.5C4.84375 8 3.5 6.65625 3.5 5V4.5C3.5 3.67188 4.17188 3 5 3H9C9.82812 3 10.5 3.67188 10.5 4.5ZM5.91563 5.08437L5.72813 4.42188C5.7 4.31875 5.60625 4.25 5.5 4.25C5.39375 4.25 5.3 4.31875 5.27187 4.42188L5.08437 5.08437L4.42188 5.27187C4.31875 5.3 4.25 5.39375 4.25 5.5C4.25 5.60625 4.31875 5.7 4.42188 5.72813L5.08437 5.91563L5.27187 6.57812C5.3 6.68125 5.39375 6.75 5.5 6.75C5.60625 6.75 5.7 6.68125 5.72813 6.57812L5.91563 5.91563L6.57812 5.72813C6.68125 5.7 6.75 5.60625 6.75 5.5C6.75 5.39375 6.68125 5.3 6.57812 5.27187L5.91563 5.08437ZM3.52187 9.89062C1.45937 10.7063 0 12.7187 0 15.0719C0 15.5844 0.415625 16 0.928125 16H4V14C4 13.4469 4.44687 13 5 13H9C9.55313 13 10 13.4469 10 14V16H13.0719C13.5844 16 14 15.5844 14 15.0719C14 12.7187 12.5406 10.7063 10.4781 9.89062C9.49687 10.5875 8.29688 11 7 11C5.70312 11 4.50312 10.5875 3.52187 9.89062ZM5.5 14C5.225 14 5 14.225 5 14.5V16H6V14.5C6 14.225 5.775 14 5.5 14ZM8.5 15C8.63261 15 8.75979 14.9473 8.85355 14.8536C8.94732 14.7598 9 14.6326 9 14.5C9 14.3674 8.94732 14.2402 8.85355 14.1464C8.75979 14.0527 8.63261 14 8.5 14C8.36739 14 8.24021 14.0527 8.14645 14.1464C8.05268 14.2402 8 14.3674 8 14.5C8 14.6326 8.05268 14.7598 8.14645 14.8536C8.24021 14.9473 8.36739 15 8.5 15Z" fill="var(--fill-0, #9CA3AF)"/>
</g>
</g>
<defs>
</defs>
</svg>
