<svg preserveAspectRatio="none" width="100%" height="100%" overflow="visible" style="display: block;" viewBox="0 0 36 36" fill="none" xmlns="http://www.w3.org/2000/svg">
<g id="Frame">

<path id="Vector" d="M29.4047 12.4594C29.025 12.3328 28.6453 12.2133 28.2656 12.1008C28.3289 11.8406 28.3852 11.5805 28.4414 11.3203C29.3063 7.12969 28.7367 3.76172 26.8172 2.65078C24.968 1.58906 21.9516 2.69297 18.9 5.35078C18.5977 5.61094 18.3023 5.88516 18.0211 6.15937C17.8312 5.97656 17.6344 5.79375 17.4375 5.61797C14.2383 2.77734 11.032 1.58203 9.1125 2.7C7.27031 3.76875 6.72187 6.93984 7.49531 10.9055C7.57266 11.2992 7.65703 11.6859 7.75547 12.0797C7.30547 12.2062 6.8625 12.3469 6.44766 12.4945C2.69297 13.7953 0 15.8484 0 17.9719C0 20.1656 2.86875 22.3664 6.77109 23.7023C7.0875 23.8078 7.40391 23.9133 7.72734 24.0047C7.62188 24.4266 7.53047 24.8414 7.44609 25.2703C6.70781 29.1727 7.28438 32.2664 9.12656 33.3281C11.025 34.425 14.2172 33.3 17.325 30.5789C17.5711 30.3609 17.8172 30.1359 18.0633 29.8969C18.3727 30.1992 18.6961 30.4875 19.0195 30.7687C22.0289 33.3562 25.0031 34.4039 26.8383 33.3422C28.7367 32.2453 29.3555 28.9195 28.5539 24.8695C28.4906 24.5602 28.4203 24.2438 28.343 23.9203C28.568 23.857 28.7859 23.7867 29.0039 23.7164C33.0609 22.3734 36 20.2008 36 17.9719C36 15.8414 33.2297 13.7742 29.4047 12.4594ZM19.8914 6.48984C22.507 4.21172 24.9469 3.31875 26.0578 3.95859C27.2461 4.64062 27.7031 7.39687 26.9578 11.018C26.9086 11.257 26.8594 11.4891 26.7961 11.7211C25.2352 11.3695 23.6531 11.1164 22.0641 10.9758C21.15 9.66797 20.1516 8.41641 19.0688 7.24219C19.343 6.98203 19.6102 6.73594 19.8914 6.48984ZM11.7562 21.6211C12.1148 22.2328 12.4805 22.8445 12.8672 23.4422C11.7703 23.3227 10.6805 23.1469 9.60469 22.9148C9.91406 21.9023 10.3008 20.8547 10.7508 19.7859C11.0742 20.4047 11.4047 21.0164 11.7562 21.6211ZM9.62578 13.1625C10.6383 12.9375 11.7141 12.7547 12.832 12.6141C12.4594 13.1977 12.0938 13.7953 11.7492 14.4C11.4047 14.9977 11.0672 15.6094 10.7508 16.2281C10.3078 15.1805 9.93516 14.1539 9.62578 13.1625ZM11.5523 18.007C12.0164 17.0367 12.5227 16.0875 13.057 15.1523C13.5914 14.2172 14.168 13.3102 14.7727 12.4172C15.8273 12.3398 16.9031 12.2977 18 12.2977C19.0969 12.2977 20.1797 12.3398 21.2273 12.4172C21.825 13.3031 22.3945 14.2102 22.9359 15.1383C23.4773 16.0664 23.9836 17.0156 24.4617 17.9789C23.9906 18.9492 23.4844 19.9055 22.943 20.8477C22.4086 21.7828 21.8391 22.6898 21.2414 23.5898C20.1938 23.6672 19.1039 23.7023 18 23.7023C16.8961 23.7023 15.8273 23.6672 14.7937 23.6039C14.182 22.7109 13.6055 21.7969 13.0641 20.8617C12.5227 19.9266 12.0234 18.9773 11.5523 18.007ZM24.2508 21.607C24.6094 20.9883 24.9469 20.3625 25.2773 19.7297C25.7273 20.7492 26.1211 21.7828 26.4656 22.8445C25.3758 23.0906 24.2719 23.2805 23.1609 23.407C23.5406 22.8164 23.8992 22.2117 24.2508 21.607ZM25.2633 16.2281C24.9328 15.6094 24.5953 14.9906 24.2437 14.3859C23.8992 13.7883 23.5406 13.1977 23.168 12.6141C24.3 12.7547 25.3828 12.9445 26.3953 13.1766C26.0719 14.2172 25.6922 15.2297 25.2633 16.2281ZM18.0141 8.31797C18.7523 9.11953 19.4484 9.96328 20.0953 10.8352C18.7031 10.7719 17.3039 10.7719 15.9117 10.8352C16.6008 9.92813 17.3109 9.08438 18.0141 8.31797ZM9.85781 4.00781C11.0391 3.31875 13.6617 4.30313 16.425 6.75C16.6008 6.90469 16.7766 7.07344 16.9594 7.24219C15.8695 8.41641 14.8641 9.66797 13.943 10.9758C12.3539 11.1164 10.7789 11.3625 9.21797 11.707C9.12656 11.3484 9.04922 10.9828 8.97187 10.6172C8.31094 7.21406 8.74687 4.64766 9.85781 4.00781ZM8.13516 22.5422C7.83984 22.4578 7.55156 22.3664 7.26328 22.268C5.76563 21.7969 4.06406 21.0516 2.83359 20.0742C2.12344 19.582 1.64531 18.8227 1.51172 17.9719C1.51172 16.6852 3.73359 15.0398 6.93984 13.9219C7.34062 13.7812 7.74844 13.6547 8.15625 13.5352C8.63438 15.0609 9.21094 16.5586 9.87891 18.007C9.20391 19.4766 8.62031 20.9953 8.13516 22.5422ZM16.3336 29.4328C15.1734 30.4945 13.8305 31.3383 12.368 31.9148C11.5875 32.2875 10.6875 32.3227 9.88594 32.0063C8.76797 31.3594 8.30391 28.8773 8.93672 25.5375C9.01406 25.1438 9.09844 24.75 9.19688 24.3633C10.7719 24.7008 12.3609 24.9328 13.9711 25.0523C14.8992 26.3672 15.9187 27.6258 17.0086 28.807C16.7836 29.025 16.5586 29.2359 16.3336 29.4328ZM18.0562 27.7242C17.3391 26.9508 16.6219 26.093 15.9258 25.1719C16.6008 25.2 17.2969 25.2141 18 25.2141C18.7242 25.2141 19.4344 25.2 20.1375 25.1648C19.4906 26.0578 18.7945 26.9086 18.0562 27.7242ZM27.2461 29.8336C27.1828 30.6914 26.7609 31.493 26.0859 32.0344C24.968 32.6812 22.5844 31.8375 20.0109 29.6297C19.7156 29.3766 19.4203 29.1023 19.118 28.8211C20.1937 27.6328 21.1852 26.3742 22.0852 25.0523C23.6953 24.9187 25.2984 24.6727 26.8805 24.3141C26.9508 24.6023 27.0141 24.8906 27.0703 25.1719C27.4148 26.6906 27.4711 28.2727 27.2461 29.8336ZM28.5258 22.275C28.3289 22.3383 28.132 22.4016 27.9281 22.4578C27.4359 20.925 26.8313 19.4273 26.1352 17.9719C26.8102 16.5375 27.3797 15.0609 27.8578 13.5492C28.2234 13.6547 28.575 13.7672 28.9125 13.8797C32.1891 15.0047 34.4883 16.6781 34.4883 17.9578C34.4883 19.3359 32.0344 21.1148 28.5258 22.275ZM18 21.2203C19.7789 21.2203 21.2203 19.7789 21.2203 18C21.2203 16.2211 19.7789 14.7797 18 14.7797C16.2211 14.7797 14.7797 16.2211 14.7797 18C14.7797 19.7789 16.2211 21.2203 18 21.2203Z" fill="var(--fill-0, #60A5FA)"/>
</g>
</svg>
