<svg preserveAspectRatio="none" width="100%" height="100%" overflow="visible" style="display: block;" viewBox="0 0 23 26" fill="none" xmlns="http://www.w3.org/2000/svg">
<g id="Frame">
<g clip-path="url(#clip0_6_84)">
<path id="Vector" d="M4.02145 5.22789C4.34142 5.22789 4.64828 5.10078 4.87453 4.87453C5.10078 4.64828 5.22789 4.34142 5.22789 4.02145C5.22789 3.70149 5.10078 3.39463 4.87453 3.16837C4.64828 2.94212 4.34142 2.81502 4.02145 2.81502C3.70149 2.81502 3.39463 2.94212 3.16837 3.16837C2.94212 3.39463 2.81502 3.70149 2.81502 4.02145C2.81502 4.34142 2.94212 4.64828 3.16837 4.87453C3.39463 5.10078 3.70149 5.22789 4.02145 5.22789ZM8.04291 4.02145C8.04291 5.67025 7.05262 7.08781 5.63004 7.70611V12.1197C6.57508 11.5717 7.67595 11.2601 8.8472 11.2601H13.6729C15.4474 11.2601 16.8901 9.81737 16.8901 8.04291V7.70611C15.4675 7.08781 14.4772 5.67025 14.4772 4.02145C14.4772 1.7996 16.2768 0 18.4987 0C20.7205 0 22.5201 1.7996 22.5201 4.02145C22.5201 5.67025 21.5299 7.08781 20.1073 7.70611V8.04291C20.1073 11.5969 17.2269 14.4772 13.6729 14.4772H8.8472C7.07273 14.4772 5.63004 15.9199 5.63004 17.6944V18.0312C7.05262 18.6495 8.04291 20.0671 8.04291 21.7159C8.04291 23.9377 6.24331 25.7373 4.02145 25.7373C1.7996 25.7373 0 23.9377 0 21.7159C0 20.0671 0.990283 18.6495 2.41287 18.0312V17.6944V7.70611C0.990283 7.08781 0 5.67025 0 4.02145C0 1.7996 1.7996 0 4.02145 0C6.24331 0 8.04291 1.7996 8.04291 4.02145ZM19.7051 4.02145C19.7051 3.70149 19.578 3.39463 19.3518 3.16837C19.1255 2.94212 18.8187 2.81502 18.4987 2.81502C18.1787 2.81502 17.8719 2.94212 17.6456 3.16837C17.4194 3.39463 17.2923 3.70149 17.2923 4.02145C17.2923 4.34142 17.4194 4.64828 17.6456 4.87453C17.8719 5.10078 18.1787 5.22789 18.4987 5.22789C18.8187 5.22789 19.1255 5.10078 19.3518 4.87453C19.578 4.64828 19.7051 4.34142 19.7051 4.02145ZM4.02145 22.9223C4.34142 22.9223 4.64828 22.7952 4.87453 22.5689C5.10078 22.3427 5.22789 22.0358 5.22789 21.7159C5.22789 21.3959 5.10078 21.089 4.87453 20.8628C4.64828 20.6365 4.34142 20.5094 4.02145 20.5094C3.70149 20.5094 3.39463 20.6365 3.16837 20.8628C2.94212 21.089 2.81502 21.3959 2.81502 21.7159C2.81502 22.0358 2.94212 22.3427 3.16837 22.5689C3.39463 22.7952 3.70149 22.9223 4.02145 22.9223Z" fill="var(--fill-0, #60A5FA)"/>
</g>
</g>
<defs>
<clipPath id="clip0_6_84">
<path d="M0 0H22.5201V25.7373H0V0Z" fill="white"/>
</clipPath>
</defs>
</svg>
