<svg preserveAspectRatio="none" width="100%" height="100%" overflow="visible" style="display: block;" viewBox="0 0 75 60" fill="none" xmlns="http://www.w3.org/2000/svg">
<g id="Frame">
<g clip-path="url(#clip0_6_33)">
<path id="Vector" d="M46.0312 0.140625C44.0391 -0.433594 41.9648 0.726563 41.3906 2.71875L26.3906 55.2188C25.8164 57.2109 26.9766 59.2852 28.9688 59.8594C30.9609 60.4336 33.0352 59.2734 33.6094 57.2813L48.6094 4.78125C49.1836 2.78906 48.0234 0.714844 46.0312 0.140625ZM55.4766 14.2148C54.0117 15.6797 54.0117 18.0586 55.4766 19.5234L65.9414 30L55.4648 40.4766C54 41.9414 54 44.3203 55.4648 45.7852C56.9297 47.25 59.3086 47.25 60.7734 45.7852L73.8984 32.6602C75.3633 31.1953 75.3633 28.8164 73.8984 27.3516L60.7734 14.2266C59.3086 12.7617 56.9297 12.7617 55.4648 14.2266L55.4766 14.2148ZM19.5352 14.2148C18.0703 12.75 15.6914 12.75 14.2266 14.2148L1.10156 27.3398C-0.363281 28.8047 -0.363281 31.1836 1.10156 32.6484L14.2266 45.7734C15.6914 47.2383 18.0703 47.2383 19.5352 45.7734C21 44.3086 21 41.9297 19.5352 40.4648L9.05859 30L19.5352 19.5234C21 18.0586 21 15.6797 19.5352 14.2148Z" fill="var(--fill-0, #60A5FA)"/>
</g>
</g>
<defs>
</defs>
</svg>
