<svg preserveAspectRatio="none" width="100%" height="100%" overflow="visible" style="display: block;" viewBox="0 0 27 22" fill="none" xmlns="http://www.w3.org/2000/svg">
<g id="Frame">
<g clip-path="url(#clip0_6_18)">
<path id="Vector" d="M16.258 0.049668C15.5544 -0.153143 14.8218 0.256618 14.619 0.960249L9.32104 19.503C9.11823 20.2066 9.52799 20.9392 10.2316 21.142C10.9352 21.3448 11.6679 20.9351 11.8707 20.2315L17.1686 1.68871C17.3714 0.985083 16.9616 0.252479 16.258 0.049668ZM19.594 5.02061C19.0767 5.53799 19.0767 6.37821 19.594 6.89558L23.2902 10.5959L19.5899 14.2961C19.0725 14.8135 19.0725 15.6537 19.5899 16.1711C20.1073 16.6885 20.9475 16.6885 21.4649 16.1711L26.1006 11.5354C26.6179 11.018 26.6179 10.1778 26.1006 9.66043L21.4649 5.02475C20.9475 4.50738 20.1073 4.50738 19.5899 5.02475L19.594 5.02061ZM6.89972 5.02061C6.38234 4.50324 5.54213 4.50324 5.02475 5.02061L0.389066 9.6563C-0.128309 10.1737 -0.128309 11.0139 0.389066 11.5313L5.02475 16.167C5.54213 16.6843 6.38234 16.6843 6.89972 16.167C7.4171 15.6496 7.4171 14.8094 6.89972 14.292L3.19945 10.5959L6.89972 6.89558C7.4171 6.37821 7.4171 5.53799 6.89972 5.02061Z" fill="var(--fill-0, #60A5FA)"/>
</g>
</g>
<defs>
</defs>
</svg>
